<svg xmlns="http://www.w3.org/2000/svg" viewBox="0 0 20 20"><defs><style>.cls-1{fill-rule:evenodd;}</style></defs><g id="Layer_2" data-name="Layer 2"><g id="Layer_1-2" data-name="Layer 1"><g id="SVGRepo_iconCarrier" data-name="SVGRepo iconCarrier"><g id="Page-1"><g id="Dribbble-Light-Preview"><g id="icons"><path id="github-_142_" data-name="github-[#142]" class="cls-1" d="M10,0A10.13,10.13,0,0,1,20,10.25,10.24,10.24,0,0,1,13.17,20c-.51.1-.69-.22-.69-.49s0-1.44,0-2.82a2.47,2.47,0,0,0-.68-1.89c2.23-.26,4.57-1.12,4.57-5.06a4,4,0,0,0-1-2.75,3.78,3.78,0,0,0-.1-2.72s-.84-.27-2.75,1a9.36,9.36,0,0,0-5,0c-1.91-1.32-2.75-1-2.75-1A3.78,3.78,0,0,0,4.65,7a4,4,0,0,0-1,2.75c0,3.93,2.33,4.81,4.56,5.07a2.15,2.15,0,0,0-.64,1.37,2.1,2.1,0,0,1-2.91-.86A2.1,2.1,0,0,0,3.1,14.25s-1,0-.07.62a2.75,2.75,0,0,1,1.11,1.5s.59,1.83,3.37,1.21c0,.86,0,1.67,0,1.91s-.18.59-.68.49A10.22,10.22,0,0,1,0,10.25,10.13,10.13,0,0,1,10,0"/></g></g></g></g></g></g></svg>