<svg xmlns="http://www.w3.org/2000/svg" viewBox="0 0 21.5 21.5"><defs><style>.cls-1{isolation:isolate;}</style></defs><g id="Layer_2" data-name="Layer 2"><g id="Layer_1-2" data-name="Layer 1"><path d="M20.63,2.4,19.54,2,19.11.88A1,1,0,0,0,18.2.25a1,1,0,0,0-.92.63L16.86,2l-1.09.44a1,1,0,0,0-.62.91,1,1,0,0,0,.62.92l1.08.42.43,1.1a1,1,0,0,0,.92.62,1,1,0,0,0,.91-.62l.43-1.09,1.09-.43a1,1,0,0,0,.62-.92A1,1,0,0,0,20.63,2.4ZM19.17,3.73a1,1,0,0,0-.56.56l-.4,1.09-.43-1.09a1,1,0,0,0-.55-.56l-1.09-.4,1.09-.44a1,1,0,0,0,.55-.55l.4-1.1.43,1.1a1,1,0,0,0,.56.55l1.09.41Z"/><path d="M15.79,7.25,15.4,7.1l-.15-.4a1,1,0,0,0-.92-.63,1,1,0,0,0-.91.63l-.15.39-.4.16a1,1,0,0,0,0,1.83l.39.15.16.4a1,1,0,0,0,.91.62,1,1,0,0,0,.92-.62l.14-.39.4-.16a1,1,0,0,0,0-1.83ZM15,8.31a1,1,0,0,0-.56.55l-.12.4-.16-.4a1,1,0,0,0-.55-.55l-.4-.13.4-.16a1,1,0,0,0,.55-.56l.12-.4.16.4A1,1,0,0,0,15,8l.39.13Z"/><path class="cls-1" d="M20.47,9.62a1.32,1.32,0,0,0-1.3.6,5.75,5.75,0,1,1-7.89-7.89,1.32,1.32,0,0,0,.6-1.3,1.14,1.14,0,0,0-1.13-1A10.75,10.75,0,1,0,21.5,10.75,1.14,1.14,0,0,0,20.47,9.62ZM10.75,20a9.25,9.25,0,0,1-1-18.44A7.25,7.25,0,1,0,20,11.73,9.25,9.25,0,0,1,10.75,20Z"/></g></g></svg>