<svg xmlns="http://www.w3.org/2000/svg" viewBox="0 0 21.5 21.5"><defs><style>.cls-1,.cls-2{fill:#fff;}.cls-2{isolation:isolate;}</style></defs><g id="Layer_2" data-name="Layer 2"><g id="Layer_1-2" data-name="Layer 1"><path class="cls-1" d="M10.75,5a5.75,5.75,0,1,0,5.75,5.75A5.76,5.76,0,0,0,10.75,5Zm0,10A4.25,4.25,0,1,1,15,10.75,4.26,4.26,0,0,1,10.75,15Z"/><path class="cls-1" d="M11.5.75v2a.75.75,0,0,1-1.5,0v-2a.75.75,0,0,1,1.5,0Z"/><path class="cls-1" d="M11.5,18.75v2a.75.75,0,0,1-1.5,0v-2a.75.75,0,0,1,1.5,0Z"/><path class="cls-1" d="M3.5,10.75a.76.76,0,0,1-.75.75h-2a.75.75,0,0,1,0-1.5h2A.76.76,0,0,1,3.5,10.75Z"/><path class="cls-1" d="M21.5,10.75a.76.76,0,0,1-.75.75h-2a.75.75,0,0,1,0-1.5h2A.76.76,0,0,1,21.5,10.75Z"/><path class="cls-2" d="M19,3.53l-2.22,2a.73.73,0,0,1-.5.19.76.76,0,0,1-.56-.24.75.75,0,0,1,.05-1.06l2.22-2a.75.75,0,0,1,1,1.11Z"/><path class="cls-2" d="M5.75,5.51a.76.76,0,0,1-.56.24.73.73,0,0,1-.5-.19l-2.22-2a.75.75,0,0,1,1-1.11l2.22,2A.75.75,0,0,1,5.75,5.51Z"/><path class="cls-2" d="M5.72,16.84,3.5,19.06a.73.73,0,0,1-.53.22.74.74,0,0,1-.53-.22.75.75,0,0,1,0-1.06l2.22-2.22a.75.75,0,1,1,1.06,1.06Z"/><path class="cls-2" d="M19.06,19.06a.79.79,0,0,1-.53.22.75.75,0,0,1-.53-.22l-2.22-2.23a.74.74,0,0,1,0-1.06.75.75,0,0,1,1.06,0L19.06,18A.75.75,0,0,1,19.06,19.06Z"/></g></g></svg>